<svg viewBox="-4 -4 184.7 60.2" xmlns="http://www.w3.org/2000/svg">
  <defs>
    <linearGradient id="brandGradient" x1="0" y1="0" x2="1" y2="1">
      <stop offset="0%" stop-color="#FFC247" />
      <stop offset="35%" stop-color="#FF2D41" />
      <stop offset="100%" stop-color="#4A148C" />
    </linearGradient>
  </defs>
  <g transform="translate(-20.468,-45.795)">
    <path fill="url(#brandGradient)" d="m 28.873544,41.826302 c -6.817267,-0.204468 -12.836769,6.093081 -12.381075,12.887952 0.01059,11.850544 -0.02127,23.701612 0.01602,35.551821 0.151448,6.651647 6.426203,12.244385 13.040867,11.741445 11.49602,-0.0107 22.992584,0.0214 34.488279,-0.016 C 70.689156,101.84018 76.282084,95.565744 75.77908,88.951109 75.76849,77.156878 75.800343,65.362123 75.76306,53.568236 75.611684,46.916697 69.337445,41.323352 62.722655,41.826329 H 28.873544 Z m 8.367191,37.117616 c -4.465616,3.779437 -9.446814,7.863291 -15.543198,9.892364 -0.05095,-11.200761 0.0238,-22.118018 0.107994,-33.310526 0.104012,-5.926738 4.250089,-8.268517 7.6616,-8.585775 1.341907,-0.12479 27.41889,-0.309114 34.414491,-0.16619 -8.256907,11.130991 -16.678356,22.391323 -26.640887,32.170127 z m 33.28563,9.382057 c -0.206911,4.666202 -2.946225,8.147202 -7.965674,8.252879 -7.360522,-0.0027 -15.031579,-0.193799 -22.462278,0.05203 -4.750713,0.420366 -5.94157,1.50531 -6.58967,1.729642 -1.433612,0.675862 -3.721946,1.917664 -3.552137,1.742544 1.082039,-1.115919 2.064745,-2.166602 3.174385,-3.385738 5.317839,-5.121099 7.246284,-7.867923 11.164799,-12.187863 6.036161,-6.730956 10.909356,-12.488156 18.818626,-17.643733 2.268779,-1.285603 4.519576,-2.284144 7.423876,-2.845706 0,0 0.039,13.046749 -0.01194,24.285951 z" />
    <text style="font-size:25.539px;font-family:Inter,sans-serif;font-weight:300;fill:#ffffff;" x="83.027" y="71.753">Influencer</text>
    <text style="font-size:24.276px;font-family:Inter,sans-serif;font-weight:600;fill:#ffffff;" x="82.77" y="93.271">Group</text>
  </g>
</svg>
